<svg width="197" height="36" viewBox="0 0 197 36" fill="none" xmlns="http://www.w3.org/2000/svg">
<path d="M41.3831 6.29676C41.4455 6.1905 41.4642 6.06418 41.4352 5.94442C41.4063 5.82465 41.332 5.7208 41.228 5.65473C41.124 5.58865 40.9984 5.56553 40.8777 5.59022C40.757 5.61491 40.6506 5.68549 40.5809 5.78709L39.4047 7.63762C38.8508 7.41713 38.2373 7.3969 37.6701 7.58043C37.1029 7.76396 36.6175 8.13973 36.2978 8.64291L36.1535 8.86995C36.0869 8.97468 36.0416 9.09152 36.0202 9.21378C35.9988 9.33603 36.0017 9.46131 36.0287 9.58246C36.0557 9.7036 36.1063 9.81823 36.1776 9.9198C36.249 10.0214 36.3396 10.1079 36.4444 10.1744L39.1689 11.9054C39.3804 12.0397 39.6366 12.0845 39.8811 12.03C40.1256 11.9755 40.3384 11.826 40.4728 11.6146L40.617 11.3876C40.9368 10.8844 41.0709 10.2854 40.9961 9.6939C40.9214 9.10243 40.6425 8.55559 40.2077 8.14777L41.3831 6.29676ZM35.8232 11.1522C35.6117 11.0179 35.3556 10.9731 35.1111 11.0276C34.8666 11.0821 34.6537 11.2315 34.5194 11.443L34.3751 11.67C34.0555 12.1732 33.9215 12.7723 33.9964 13.3637C34.0712 13.9551 34.3502 14.5019 34.7851 14.9096L33.609 16.7608C33.5729 16.8135 33.5477 16.8729 33.5351 16.9354C33.5224 16.998 33.5225 17.0625 33.5353 17.1251C33.5481 17.1877 33.5733 17.247 33.6096 17.2996C33.6458 17.3522 33.6922 17.3969 33.7461 17.4312C33.8 17.4654 33.8603 17.4884 33.9233 17.4989C33.9863 17.5093 34.0507 17.507 34.1128 17.492C34.1749 17.477 34.2333 17.4497 34.2846 17.4116C34.3358 17.3735 34.3789 17.3255 34.4112 17.2705L35.5873 15.4193C36.1412 15.6399 36.7546 15.6602 37.3219 15.4768C37.8891 15.2934 38.3745 14.9178 38.6944 14.4147L38.8386 14.1876C38.9052 14.0829 38.9505 13.966 38.9719 13.8438C38.9934 13.7215 38.9905 13.5962 38.9635 13.4751C38.9365 13.354 38.8858 13.2393 38.8145 13.1378C38.7432 13.0362 38.6525 12.9497 38.5477 12.8832L35.8232 11.1522Z" fill="#0057FF"/>
<path d="M18.4662 18.8657H3.5711C2.6743 18.8657 1.81422 19.2219 1.18009 19.8561C0.545951 20.4902 0.189697 21.3503 0.189697 22.2471V24.7831L0.198151 25.172C0.468663 30.775 6.57717 32.3913 11.1793 32.3913C12.9207 32.3913 14.8802 32.1597 16.6554 31.5679C16.2607 30.8156 15.956 30.0194 15.7475 29.1959C14.4398 29.5975 13.0829 29.8165 11.7152 29.8468L11.1793 29.8552L10.6433 29.8468C8.50795 29.7808 6.518 29.326 5.12148 28.5737C3.48657 27.6945 2.72575 26.489 2.72575 24.7831V22.2454L2.74266 22.0746C2.77637 21.9128 2.85624 21.7643 2.97259 21.6469C3.0902 21.5308 3.23867 21.451 3.40034 21.4169L3.5711 21.4H16.6436C17.1276 20.4733 17.7406 19.62 18.4645 18.8657H18.4662ZM18.7874 7.8761C18.7874 5.8583 17.9858 3.92313 16.559 2.49632C15.1322 1.06952 13.1971 0.267944 11.1793 0.267944C9.16145 0.267944 7.22629 1.06952 5.79948 2.49632C4.37267 3.92313 3.5711 5.8583 3.5711 7.8761C3.5711 9.89391 4.37267 11.8291 5.79948 13.2559C7.22629 14.6827 9.16145 15.4843 11.1793 15.4843C13.1971 15.4843 15.1322 14.6827 16.559 13.2559C17.9858 11.8291 18.7874 9.89391 18.7874 7.8761ZM6.10715 7.8761C6.10715 5.07968 8.38284 2.804 11.1793 2.804C13.9757 2.804 16.2514 5.07968 16.2514 7.8761C16.2514 10.6725 13.9757 12.9482 11.1793 12.9482C8.38284 12.9482 6.10715 10.6725 6.10715 7.8761ZM32.313 9.56681C32.313 7.9974 31.6896 6.49227 30.5799 5.38253C29.4701 4.27279 27.965 3.64935 26.3956 3.64935C24.8262 3.64935 23.321 4.27279 22.2113 5.38253C21.1016 6.49227 20.4781 7.9974 20.4781 9.56681C20.4781 11.1362 21.1016 12.6413 22.2113 13.7511C23.321 14.8608 24.8262 15.4843 26.3956 15.4843C27.965 15.4843 29.4701 14.8608 30.5799 13.7511C31.6896 12.6413 32.313 11.1362 32.313 9.56681ZM23.0142 9.56681C23.0142 7.70196 24.5307 6.1854 26.3956 6.1854C28.2604 6.1854 29.777 7.70196 29.777 9.56681C29.777 11.4317 28.2604 12.9482 26.3956 12.9482C24.5307 12.9482 23.0142 11.4317 23.0142 9.56681ZM35.6944 26.4738C35.6944 28.94 34.7147 31.3052 32.9709 33.0491C31.227 34.793 28.8618 35.7727 26.3956 35.7727C23.9294 35.7727 21.5642 34.793 19.8203 33.0491C18.0764 31.3052 17.0967 28.94 17.0967 26.4738C17.0967 24.0076 18.0764 21.6424 19.8203 19.8985C21.5642 18.1547 23.9294 17.175 26.3956 17.175C28.8618 17.175 31.227 18.1547 32.9709 19.8985C34.7147 21.6424 35.6944 24.0076 35.6944 26.4738ZM32.0662 22.4939C31.9877 22.4152 31.8944 22.3527 31.7917 22.3101C31.689 22.2675 31.5789 22.2456 31.4677 22.2456C31.3565 22.2456 31.2464 22.2675 31.1437 22.3101C31.041 22.3527 30.9477 22.4152 30.8692 22.4939L24.7049 28.6599L21.922 25.8753C21.7632 25.7166 21.548 25.6274 21.3235 25.6274C21.099 25.6274 20.8837 25.7166 20.725 25.8753C20.5662 26.0341 20.4771 26.2493 20.4771 26.4738C20.4771 26.6983 20.5662 26.9136 20.725 27.0723L24.1064 30.4537C24.1849 30.5325 24.2782 30.5949 24.3809 30.6375C24.4836 30.6802 24.5937 30.7021 24.7049 30.7021C24.8161 30.7021 24.9262 30.6802 25.0289 30.6375C25.1316 30.5949 25.2249 30.5325 25.3034 30.4537L32.0662 23.6909C32.1449 23.6124 32.2074 23.5191 32.25 23.4164C32.2926 23.3137 32.3146 23.2036 32.3146 23.0924C32.3146 22.9812 32.2926 22.8711 32.25 22.7684C32.2074 22.6657 32.1449 22.5724 32.0662 22.4939Z" fill="url(#paint0_linear_202_127)"/>
<path d="M53.4668 16.075C52.972 16.1011 52.5553 16.2899 52.2168 16.6414C51.8913 16.993 51.6569 17.3966 51.5137 17.8524C51.3704 18.2951 51.2988 18.7508 51.2988 19.2195C51.2988 19.6883 51.3639 20.1505 51.4941 20.6063C51.6374 21.062 51.8783 21.4656 52.2168 21.8172C52.5553 22.1557 52.972 22.338 53.4668 22.3641H59.9121C60.7324 22.4422 61.1816 22.8914 61.2598 23.7117C61.2467 24.0763 61.11 24.3823 60.8496 24.6297C60.5892 24.8641 60.2767 24.9813 59.9121 24.9813H53.6816H52.7832C51.8717 24.9292 51.123 24.5841 50.5371 23.9461C49.9512 23.2951 49.528 22.5594 49.2676 21.7391C49.0202 20.9188 48.8965 20.0789 48.8965 19.2195C48.8965 18.5815 48.9681 17.95 49.1113 17.325C49.2546 16.7 49.4759 16.1076 49.7754 15.5477C50.0879 14.9748 50.498 14.4865 51.0059 14.0828C51.5267 13.6792 52.1191 13.4708 52.7832 13.4578H53.1543H59.9121C60.7324 13.5359 61.1816 13.9852 61.2598 14.8055C61.2598 15.1701 61.123 15.4761 60.8496 15.7234C60.5892 15.9578 60.2767 16.075 59.9121 16.075H53.4668ZM67.0996 24.9813C65.9538 24.9422 65.0879 24.6753 64.502 24.1805C63.916 23.6727 63.4928 23.1063 63.2324 22.4813C62.972 21.8432 62.8418 21.1987 62.8418 20.5477C62.8418 19.8706 62.9655 19.2195 63.2129 18.5945C63.4733 17.9565 63.8965 17.3901 64.4824 16.8953C65.0814 16.3875 65.8366 16.1271 66.748 16.1141H73.0762C73.9876 16.1271 74.7363 16.3875 75.3223 16.8953C75.9212 17.3901 76.3444 17.9565 76.5918 18.5945C76.8522 19.2195 76.9824 19.8706 76.9824 20.5477C76.9824 21.1987 76.8522 21.8432 76.5918 22.4813C76.3314 23.1063 75.9082 23.6727 75.3223 24.1805C74.7363 24.6753 73.8704 24.9422 72.7246 24.9813H67.0996ZM66.6699 18.7313C66.4225 18.7313 66.2077 18.8354 66.0254 19.0438C65.8431 19.2391 65.7064 19.4734 65.6152 19.7469C65.5371 20.0073 65.498 20.2677 65.498 20.5281C65.498 20.8016 65.5371 21.075 65.6152 21.3484C65.7064 21.6089 65.8431 21.8432 66.0254 22.0516C66.2077 22.2469 66.4225 22.3511 66.6699 22.3641H73.1543C73.4017 22.3511 73.6165 22.2469 73.7988 22.0516C73.9811 21.8432 74.1113 21.6089 74.1895 21.3484C74.2806 21.075 74.3262 20.8016 74.3262 20.5281C74.3262 20.2677 74.2806 20.0073 74.1895 19.7469C74.1113 19.4734 73.9811 19.2391 73.7988 19.0438C73.6165 18.8354 73.4017 18.7313 73.1543 18.7313H66.6699ZM90.1074 14.4149C90.1855 13.6336 90.6152 13.2104 91.3965 13.1453C91.7611 13.1453 92.0736 13.269 92.334 13.5164C92.6074 13.7508 92.7441 14.0503 92.7441 14.4149V23.7117C92.7311 24.0763 92.5944 24.3823 92.334 24.6297C92.0736 24.8641 91.7611 24.9813 91.3965 24.9813H83.1934C82.0475 24.9422 81.1816 24.6753 80.5957 24.1805C80.0098 23.6727 79.5866 23.1063 79.3262 22.4813C79.0658 21.8432 78.9355 21.1987 78.9355 20.5477C78.9355 19.8706 79.0592 19.2195 79.3066 18.5945C79.5671 17.9565 79.9902 17.3901 80.5762 16.8953C81.1751 16.3875 81.9303 16.1271 82.8418 16.1141H87.7637C88.1283 16.1141 88.4342 16.2443 88.6816 16.5047C88.9421 16.7521 89.0723 17.0581 89.0723 17.4227C89.0723 17.7873 88.9421 18.0998 88.6816 18.3602C88.4342 18.6076 88.1283 18.7313 87.7637 18.7313H82.7637C82.5163 18.7313 82.3014 18.8354 82.1191 19.0438C81.9368 19.2391 81.8001 19.4734 81.709 19.7469C81.6309 20.0073 81.5918 20.2677 81.5918 20.5281C81.5918 20.8016 81.6309 21.075 81.709 21.3484C81.8001 21.6089 81.9368 21.8432 82.1191 22.0516C82.3014 22.2469 82.5163 22.3511 82.7637 22.3641H89.5996C89.9382 22.3511 90.1074 22.1818 90.1074 21.8563V14.4149ZM96.6699 15.9188C97.0215 15.9318 97.321 16.062 97.5684 16.3094C97.8158 16.5438 97.946 16.8367 97.959 17.1883V23.9461C97.8809 24.7274 97.4512 25.1505 96.6699 25.2156C96.3053 25.2156 95.9863 25.0984 95.7129 24.8641C95.4525 24.6167 95.3223 24.3107 95.3223 23.9461V17.1883C95.3353 16.8237 95.472 16.5242 95.7324 16.2899C95.9928 16.0425 96.3053 15.9188 96.6699 15.9188ZM95.0293 13.3797C95.0293 13.0151 95.1855 12.7026 95.498 12.4422C95.8105 12.1818 96.1882 12.0516 96.6309 12.0516C97.0736 12.0516 97.4512 12.1818 97.7637 12.4422C98.0762 12.7026 98.2324 13.0151 98.2324 13.3797C98.2324 13.7573 98.0762 14.0763 97.7637 14.3367C97.4512 14.5971 97.0736 14.7274 96.6309 14.7274C96.1882 14.7274 95.8105 14.5971 95.498 14.3367C95.1855 14.0763 95.0293 13.7573 95.0293 13.3797ZM106.572 15.8211C107.249 15.8211 107.913 15.8992 108.564 16.0555C109.229 16.2117 109.86 16.4461 110.459 16.7586C111.058 17.0581 111.585 17.4617 112.041 17.9695C112.51 18.4774 112.764 19.0828 112.803 19.7859V20.6063V23.9461C112.725 24.7274 112.295 25.1505 111.514 25.2156C111.149 25.2156 110.83 25.0984 110.557 24.8641C110.296 24.6167 110.166 24.3107 110.166 23.9461V23.0867V20.3914C110.14 19.9878 109.984 19.6557 109.697 19.3953C109.424 19.1219 109.111 18.907 108.76 18.7508C108.421 18.5945 108.063 18.4774 107.686 18.3992C107.321 18.3211 106.95 18.282 106.572 18.282C106.195 18.282 105.817 18.3211 105.439 18.3992C105.075 18.4774 104.717 18.5945 104.365 18.7508C104.027 18.907 103.714 19.1219 103.428 19.3953C103.154 19.6557 103.005 19.9878 102.979 20.3914V23.0867V23.9461C102.913 24.7274 102.49 25.1505 101.709 25.2156C101.344 25.2156 101.025 25.0984 100.752 24.8641C100.492 24.6167 100.361 24.3107 100.361 23.9461V20.6063V19.7859C100.4 19.0828 100.648 18.4774 101.104 17.9695C101.559 17.4617 102.087 17.0581 102.686 16.7586C103.285 16.4461 103.91 16.2117 104.561 16.0555C105.225 15.8992 105.895 15.8211 106.572 15.8211ZM126.24 19.2391C126.24 18.9136 126.071 18.7443 125.732 18.7313H118.896C118.649 18.7443 118.434 18.855 118.252 19.0633C118.07 19.2586 117.933 19.493 117.842 19.7664C117.764 20.0268 117.725 20.2938 117.725 20.5672C117.725 20.8276 117.764 21.0945 117.842 21.368C117.933 21.6284 118.07 21.8628 118.252 22.0711C118.434 22.2664 118.649 22.3641 118.896 22.3641H123.896C124.261 22.3641 124.567 22.4943 124.814 22.7547C125.075 23.0021 125.205 23.3081 125.205 23.6727C125.205 24.0373 125.075 24.3432 124.814 24.5906C124.567 24.8511 124.261 24.9813 123.896 24.9813H118.975C118.063 24.9682 117.308 24.7143 116.709 24.2195C116.123 23.7117 115.7 23.1453 115.439 22.5203C115.192 21.8823 115.068 21.2248 115.068 20.5477C115.068 19.8966 115.199 19.2586 115.459 18.6336C115.719 17.9956 116.143 17.4292 116.729 16.9344C117.314 16.4266 118.18 16.1531 119.326 16.1141H127.529C127.894 16.1141 128.206 16.2378 128.467 16.4852C128.727 16.7195 128.864 17.019 128.877 17.3836V23.5555C128.877 24.5971 128.734 25.5802 128.447 26.5047C128.187 27.325 127.757 28.0151 127.158 28.575C126.572 29.1479 125.824 29.4604 124.912 29.5125H118.154C117.803 29.4995 117.503 29.3693 117.256 29.1219C117.021 28.8875 116.898 28.5945 116.885 28.243C116.885 27.8784 117.002 27.5659 117.236 27.3055C117.484 27.0451 117.79 26.9083 118.154 26.8953H124.248C124.743 26.8693 125.153 26.6805 125.479 26.3289C125.804 25.9774 126.012 25.5672 126.104 25.0984C126.195 24.6297 126.24 24.0242 126.24 23.282V19.2391ZM142.861 13.1453C143.213 13.1583 143.512 13.2886 143.76 13.5359C144.007 13.7703 144.137 14.0633 144.15 14.4149V23.9852C144.072 24.7664 143.643 25.1896 142.861 25.2547C142.497 25.2547 142.178 25.1375 141.904 24.9031C141.644 24.6557 141.514 24.3498 141.514 23.9852V14.4149C141.527 14.0503 141.663 13.7508 141.924 13.5164C142.184 13.269 142.497 13.1453 142.861 13.1453ZM147.979 15.9188C148.33 15.9318 148.63 16.062 148.877 16.3094C149.124 16.5438 149.255 16.8367 149.268 17.1883V23.9461C149.189 24.7274 148.76 25.1505 147.979 25.2156C147.614 25.2156 147.295 25.0984 147.021 24.8641C146.761 24.6167 146.631 24.3107 146.631 23.9461V17.1883C146.644 16.8237 146.781 16.5242 147.041 16.2899C147.301 16.0425 147.614 15.9188 147.979 15.9188ZM146.338 13.3797C146.338 13.0151 146.494 12.7026 146.807 12.4422C147.119 12.1818 147.497 12.0516 147.939 12.0516C148.382 12.0516 148.76 12.1818 149.072 12.4422C149.385 12.7026 149.541 13.0151 149.541 13.3797C149.541 13.7573 149.385 14.0763 149.072 14.3367C148.76 14.5971 148.382 14.7274 147.939 14.7274C147.497 14.7274 147.119 14.5971 146.807 14.3367C146.494 14.0763 146.338 13.7573 146.338 13.3797ZM156.123 25.2156C155.771 25.2026 155.472 25.0789 155.225 24.8445C154.977 24.5971 154.847 24.2977 154.834 23.9461V21.3094H152.588C152.223 21.3094 151.911 21.1857 151.65 20.9383C151.403 20.6779 151.279 20.3654 151.279 20.0008C151.279 19.6362 151.41 19.3302 151.67 19.0828C151.917 18.8224 152.223 18.6922 152.588 18.6922H154.834C154.873 17.924 155.003 17.1818 155.225 16.4656C155.485 15.6453 155.908 14.9552 156.494 14.3953C157.093 13.8224 157.848 13.5099 158.76 13.4578H164.189C164.541 13.4708 164.834 13.6011 165.068 13.8484C165.316 14.0828 165.446 14.3758 165.459 14.7274C165.459 15.0919 165.335 15.4044 165.088 15.6649C164.854 15.9253 164.554 16.062 164.189 16.075H159.424C158.929 16.1011 158.519 16.2899 158.193 16.6414C157.868 16.993 157.666 17.3901 157.588 17.8328C157.523 18.1193 157.484 18.4057 157.471 18.6922H164.111C164.476 18.6922 164.782 18.8224 165.029 19.0828C165.29 19.3302 165.42 19.6362 165.42 20.0008C165.42 20.3654 165.296 20.6779 165.049 20.9383C164.788 21.1857 164.476 21.3094 164.111 21.3094H157.471V23.9461C157.458 24.3107 157.321 24.6167 157.061 24.8641C156.8 25.0984 156.488 25.2156 156.123 25.2156ZM171.494 24.9813C170.348 24.9422 169.482 24.6753 168.896 24.1805C168.311 23.6727 167.887 23.1063 167.627 22.4813C167.367 21.8432 167.236 21.1987 167.236 20.5477C167.236 19.8706 167.36 19.2195 167.607 18.5945C167.868 17.9565 168.291 17.3901 168.877 16.8953C169.476 16.3875 170.231 16.1271 171.143 16.1141H178.564C178.929 16.1141 179.235 16.2378 179.482 16.4852C179.743 16.7195 179.873 17.006 179.873 17.3445C179.873 17.6961 179.743 17.9956 179.482 18.243C179.235 18.4774 178.929 18.5945 178.564 18.5945H171.26C170.973 18.5945 170.719 18.6922 170.498 18.8875C170.29 19.0828 170.133 19.3367 170.029 19.6492C169.938 19.9617 169.893 20.2677 169.893 20.5672C169.893 20.8927 169.938 21.2117 170.029 21.5242C170.133 21.8367 170.29 22.0906 170.498 22.2859C170.719 22.4682 170.973 22.5659 171.26 22.5789H178.564C178.929 22.5789 179.235 22.6961 179.482 22.9305C179.743 23.1649 179.873 23.4448 179.873 23.7703C179.873 24.1089 179.743 24.3953 179.482 24.6297C179.235 24.8641 178.929 24.9813 178.564 24.9813H171.494ZM179.639 20.5086C179.639 20.756 179.528 20.9708 179.307 21.1531C179.111 21.3224 178.864 21.407 178.564 21.407H172.178C171.878 21.407 171.624 21.3224 171.416 21.1531C171.208 20.9708 171.104 20.756 171.104 20.5086C171.104 20.2742 171.208 20.0659 171.416 19.8836C171.624 19.7143 171.878 19.6297 172.178 19.6297H178.564C178.864 19.6297 179.118 19.7208 179.326 19.9031C179.535 20.0724 179.639 20.2742 179.639 20.5086ZM194.521 17.2469C194.521 17.5724 194.391 17.8458 194.131 18.0672C193.883 18.2755 193.577 18.3797 193.213 18.3797H184.951C184.782 18.3797 184.645 18.4123 184.541 18.4774C184.437 18.5425 184.359 18.6141 184.307 18.6922C184.255 18.7573 184.229 18.8159 184.229 18.868C184.229 18.9331 184.255 19.0047 184.307 19.0828C184.359 19.1479 184.437 19.213 184.541 19.2781C184.645 19.3302 184.782 19.3628 184.951 19.3758H191.338C192.158 19.3888 192.835 19.5516 193.369 19.8641C193.903 20.1636 194.281 20.5216 194.502 20.9383C194.736 21.3419 194.854 21.7521 194.854 22.1688C194.854 22.5724 194.736 22.9826 194.502 23.3992C194.268 23.8029 193.883 24.1609 193.35 24.4734C192.829 24.7729 192.158 24.9227 191.338 24.9227C191.195 24.9357 191.09 24.9422 191.025 24.9422H183.447C183.083 24.9422 182.77 24.838 182.51 24.6297C182.262 24.4083 182.139 24.1414 182.139 23.8289C182.139 23.5034 182.269 23.23 182.529 23.0086C182.777 22.8003 183.083 22.6961 183.447 22.6961H191.494C191.689 22.7091 191.846 22.6831 191.963 22.618C192.093 22.5529 192.191 22.4813 192.256 22.4031C192.321 22.325 192.354 22.2469 192.354 22.1688C192.354 22.1297 192.321 22.0646 192.256 21.9734C192.191 21.8693 192.093 21.7912 191.963 21.7391C191.846 21.674 191.689 21.6349 191.494 21.6219H185.088C184.333 21.6089 183.708 21.4526 183.213 21.1531C182.718 20.8406 182.367 20.4826 182.158 20.0789C181.95 19.6753 181.846 19.2716 181.846 18.868C181.846 18.4643 181.95 18.0672 182.158 17.6766C182.38 17.2729 182.731 16.9279 183.213 16.6414C183.708 16.3419 184.333 16.1792 185.088 16.1531C185.218 16.1401 185.316 16.1336 185.381 16.1336H193.213C193.577 16.1336 193.883 16.2443 194.131 16.4656C194.391 16.674 194.521 16.9344 194.521 17.2469Z" fill="#0057FF"/>
<defs>
<linearGradient id="paint0_linear_202_127" x1="6.31341" y1="0.267945" x2="30.5179" y2="33.9629" gradientUnits="userSpaceOnUse">
<stop stop-color="#FF842B"/>
<stop offset="1" stop-color="#FF00B8"/>
</linearGradient>
</defs>
</svg>
